<?xml version="1.0" encoding="UTF-8"?>
<svg width="152" height="152" viewBox="0 0 100 100" xmlns="http://www.w3.org/2000/svg">
  <!-- 背景圆形 -->
  <circle cx="50" cy="50" r="45" fill="#f97316"/>

  <!-- 猫头鹰身体 -->
  <ellipse cx="50" cy="55" rx="25" ry="30" fill="#1f2937"/>

  <!-- 猫头鹰头部 -->
  <circle cx="50" cy="35" r="20" fill="#1f2937"/>

  <!-- 眼睛背景 -->
  <circle cx="43" cy="32" r="6" fill="#ffffff"/>
  <circle cx="57" cy="32" r="6" fill="#ffffff"/>

  <!-- 眼珠 -->
  <circle cx="43" cy="32" r="3" fill="#f97316"/>
  <circle cx="57" cy="32" r="3" fill="#f97316"/>

  <!-- 喙 -->
  <polygon points="50,38 47,43 53,43" fill="#f97316"/>

  <!-- 耳朵 -->
  <polygon points="35,25 40,15 45,25" fill="#1f2937"/>
  <polygon points="55,25 60,15 65,25" fill="#1f2937"/>

  <!-- 翅膀装饰 -->
  <path d="M 27 50 A 8 8 0 0 1 43 50" stroke="#f97316" stroke-width="2" fill="none"/>
  <path d="M 57 50 A 8 8 0 0 1 73 50" stroke="#f97316" stroke-width="2" fill="none"/>
</svg>